HIERARCHY
ROOT Hips
{
  OFFSET -187.679 86.5976 -156.378
  CHANNELS 6 Xposition Yposition Zposition Zrotation Xrotation Yrotation
  JOINT LeftUpLeg
  {
    OFFSET 8.64259 1.95398 -2.38835
    CHANNELS 3 Zrotation Xrotation Yrotation
    JOINT LeftLeg
    {
      OFFSET 43.7702 0 0
      CHANNELS 3 Zrotation Xrotation Yrotation
      JOINT LeftFoot
      {
        OFFSET 40.6238 0 0
        CHANNELS 3 Zrotation Xrotation Yrotation
        JOINT LeftToeBase
        {
          OFFSET 12.7242 0 0
          CHANNELS 3 Zrotation Xrotation Yrotation
          End Site
          {
            OFFSET 0 0 0
          }
        }
      }
    }
  }
  JOINT RightUpLeg
  {
    OFFSET -8.2249 1.95398 -2.59336
    CHANNELS 3 Zrotation Xrotation Yrotation
    JOINT RightLeg
    {
      OFFSET 43.5653 0 0
      CHANNELS 3 Zrotation Xrotation Yrotation
      JOINT RightFoot
      {
        OFFSET 40.6238 0 0
        CHANNELS 3 Zrotation Xrotation Yrotation
        JOINT RightToeBase
        {
          OFFSET 12.7242 0 0
          CHANNELS 3 Zrotation Xrotation Yrotation
          End Site
          {
            OFFSET 0 0 0
          }
        }
      }
    }
  }
  JOINT Spine
  {
    OFFSET 0.165834 0.87714 6.61349
    CHANNELS 3 Zrotation Xrotation Yrotation
    JOINT Spine1
    {
      OFFSET 7.38963 1.71661e-005 0
      CHANNELS 3 Zrotation Xrotation Yrotation
      JOINT Spine2
      {
        OFFSET 11.9445 1.14441e-005 0
        CHANNELS 3 Zrotation Xrotation Yrotation
        JOINT Spine3
        {
          OFFSET 14.7254 4.19617e-005 0
          CHANNELS 3 Zrotation Xrotation Yrotation
          JOINT Spine4
          {
            OFFSET 10.9679 0 0
            CHANNELS 3 Zrotation Xrotation Yrotation
            JOINT RightShoulder
            {
              OFFSET 2.46616 -1.6653 3.69651
              CHANNELS 3 Zrotation Xrotation Yrotation
              JOINT RightArm
              {
                OFFSET 13.0012 0 0
                CHANNELS 3 Zrotation Xrotation Yrotation
                JOINT RightForeArm
                {
                  OFFSET 28.7848 1.52588e-005 0
                  CHANNELS 3 Zrotation Xrotation Yrotation
                  JOINT RightHand
                  {
                    OFFSET 26.5688 1.52588e-005 0
                    CHANNELS 3 Zrotation Xrotation Yrotation
                    End Site
                    {
                      OFFSET 0 0 0
                    }
                  }
                }
              }
            }
            JOINT LeftShoulder
            {
              OFFSET 2.38034 -1.29275 -3.7523
              CHANNELS 3 Zrotation Xrotation Yrotation
              JOINT LeftArm
              {
                OFFSET 16.3182 6.10352e-005 0
                CHANNELS 3 Zrotation Xrotation Yrotation
                JOINT LeftForeArm
                {
                  OFFSET 27.0901 0 0
                  CHANNELS 3 Zrotation Xrotation Yrotation
                  JOINT LeftHand
                  {
                    OFFSET 24.5451 1.52588e-005 0
                    CHANNELS 3 Zrotation Xrotation Yrotation
                    End Site
                    {
                      OFFSET 0 0 0
                    }
                  }
                }
              }
            }
            JOINT Neck
            {
              OFFSET 5.0226 -0.0266342 0
              CHANNELS 3 Zrotation Xrotation Yrotation
              JOINT Head
              {
                OFFSET 6.69363 2.86102e-005 0
                CHANNELS 3 Zrotation Xrotation Yrotation
                End Site
                {
                  OFFSET 0 0 0
                }
              }
            }
          }
        }
      }
    }
  }
}
MOTION
Frames:	15
Frame Time:	0.0416667
29.2312 102.864 -331.025 168.9 -82.0151 167.919 -174.406 -5.29257 89.4261 -17.1469 29.5517 9.66015 64.1033 3.38777 4.58539 28.1544 -0.741528 1.52356 172.577 -6.37274 87.3789 -14.7884 4.24445 1.64339 63.6875 -2.0399 1.03619 26.3861 -0.192165 -0.57262 -0.0379015 8.15034 -89.7356 10.5728 0.0460654 0.521341 -1.09823 0.068968 0.518797 -23.6326 -0.112743 0.511079 -3.61992 -0.11274 0.511082 82.9186 -51.6931 -110.734 22.2721 -25.2114 -17.1142 -16.9852 -19.0352 -18.9837 -11.3436 0.226002 -7.59746 -91.7221 -47.6152 75.7972 -21.5016 7.10268 -15.0295 98.8735 53.3115 -99.8424 10.7851 -2.06619 -21.2264 8.60855 -1.34656 -6.81814 6.45091 0.441567 3.70345 
29.1419 102.866 -331.008 166.928 -82.2174 166.198 -174.202 -4.77132 89.8744 -17.1969 28.7843 9.35015 64.5212 3.37503 3.54909 28.2437 -0.526799 0.97966 172.861 -6.41755 87.8107 -14.3394 4.47229 1.65716 63.9626 -2.11327 0.317538 24.9971 -0.96445 1.16631 -0.0544632 8.11726 -89.7712 10.6392 -0.0031513 0.455136 -1.03187 0.0168845 0.454826 -23.5664 -0.139797 0.433147 -3.55378 -0.139791 0.433147 82.5682 -51.6069 -111.277 22.3985 -25.0692 -16.5941 -17.1279 -19.0628 -19.2314 -10.8821 0.0967025 -6.26937 -92.2782 -47.8548 75.0141 -22.4627 4.80618 -13.7038 100.89 51.4093 -101.318 9.70419 -1.95772 -21.7549 8.35533 -1.42761 -6.98924 6.50943 0.402439 3.90955 
29.2397 102.872 -330.994 170.688 -82.0265 169.64 -174.421 -5.43706 89.3387 -16.4708 27.5343 9.30705 64.446 3.23025 3.10679 28.0072 -0.561294 0.800313 172.454 -6.43911 87.2341 -14.7453 3.78243 1.65041 64.6692 -2.28408 -0.087577 23.6157 -1.68956 2.64209 -0.0221207 8.15781 -89.7394 10.5578 0.0757092 0.511008 -1.11327 0.0981314 0.507176 -23.6476 -0.081368 0.510141 -3.63498 -0.0813644 0.510136 82.587 -51.4981 -111.287 22.2033 -25.4906 -16.8402 -16.8067 -18.5969 -18.826 -11.1853 0.21169 -7.48264 -92.3359 -48.0492 74.9783 -20.7092 7.85585 -14.963 94.7872 54.5478 -96.1043 10.5404 -1.91676 -20.2494 8.17332 -1.51444 -7.08839 6.80226 0.349059 4.04296 
29.1056 102.882 -331.009 170.841 -82.5624 170.214 -174.194 -4.61471 89.9434 -16.9234 27.6093 9.16515 64.605 3.31255 3.16151 27.8954 -0.486864 0.442562 173.017 -6.23978 87.9874 -14.1756 4.35238 1.5608 64.2897 -2.24578 -0.0173263 23.8275 -1.72137 2.84605 -0.0185747 8.11228 -89.7839 10.649 0.0625344 0.423991 -1.02198 0.081133 0.420821 -23.5566 -0.0677879 0.423188 -3.54394 -0.0677854 0.423179 82.7716 -51.3589 -111.065 22.2866 -25.6808 -17.0183 -16.78 -18.7445 -18.8066 -10.9849 0.173037 -7.10757 -92.2255 -48.0027 75.133 -21.2171 7.64362 -13.4364 91.6797 52.5382 -93.0203 8.71102 -1.61175 -19.8011 8.40615 -1.504 -6.96833 6.54761 0.307192 3.65234 
29.115 102.859 -331.048 171.63 -82.8124 171.079 -174.184 -4.38646 89.96 -16.8564 27.4998 9.08548 64.6155 3.33023 3.24342 28.1116 -0.470957 0.651199 173.106 -5.89834 88.0767 -14.2915 4.28941 1.54038 64.351 -2.28595 0.0380744 23.3011 -1.63694 2.31253 -0.0101051 8.09058 -89.7794 10.6924 0.081534 0.431045 -0.978651 0.100422 0.427042 -23.5132 -0.0517869 0.435622 -3.50059 -0.051786 0.435625 82.5392 -51.6437 -111.307 21.9128 -25.8728 -17.0625 -16.6947 -18.3179 -18.7807 -10.7 0.177699 -7.22277 -92.3265 -47.8158 74.9305 -21.2128 8.41227 -13.8832 86.4148 54.3336 -88.0514 8.42941 -1.47451 -18.7874 8.59026 -1.40693 -7.25167 6.32633 0.478413 3.80988 
29.2212 102.895 -330.995 172.993 -82.5867 172.091 -174.557 -4.66955 89.3967 -16.8443 26.3947 9.3217 64.6905 3.18939 2.43511 27.3613 -0.55224 0.0168869 172.713 -6.04178 87.5062 -14.423 3.7594 1.54649 64.4005 -2.27654 0.00540654 23.5966 -1.59544 2.34787 -0.00518434 8.11122 -89.7116 10.6508 0.122471 0.562228 -1.0203 0.147092 0.556289 -23.5545 -0.0521563 0.573045 -3.54183 -0.0521721 0.573029 82.3989 -51.9561 -111.403 21.7994 -25.9388 -16.9894 -16.5801 -18.221 -18.6569 -10.8497 0.132753 -6.68621 -92.1259 -47.2347 75.082 -21.5328 9.61427 -14.2501 78.6748 55.6273 -80.6012 7.58836 -1.22874 -17.2472 8.526 -1.41535 -7.89376 6.43119 0.653283 4.39049 
29.0982 102.88 -330.989 173.537 -82.9369 173.021 -174.302 -3.97653 90.0052 -17.4596 26.5288 9.14141 64.9038 3.31044 2.59188 27.7771 -0.399518 0.0403405 173.173 -5.87545 88.1447 -14.169 3.97807 1.46914 64.2029 -2.25414 -0.144952 23.8124 -1.68561 2.7314 0.00604419 8.07708 -89.7634 10.7193 0.121156 0.459443 -0.951702 0.141262 0.453652 -23.4862 -0.0225311 0.474603 -3.47355 -0.0225237 0.474613 82.2783 -51.9193 -111.592 21.6612 -26.0436 -16.8505 -16.5915 -17.9773 -18.7481 -10.669 0.127747 -6.66197 -92.0485 -47.495 75.2688 -21.4919 10.5453 -13.4748 70.5697 54.0503 -72.8059 5.65186 -0.913941 -15.8674 8.43523 -1.46902 -7.69332 6.65598 0.554503 4.30914 
29.1211 102.858 -330.9 177.319 -82.8243 176.669 -174.347 -4.54286 89.7502 -16.9968 26.6877 9.16001 64.5919 3.26109 3.03332 28.3161 -0.465423 0.885935 172.973 -5.76235 87.8464 -14.6722 3.25503 1.4367 64.3883 -2.25131 -0.140246 23.6756 -1.60406 2.41559 0.0537916 8.10306 -89.7368 10.667 0.228374 0.502586 -1.00399 0.250262 0.492043 -23.5384 0.066757 0.547973 -3.52573 0.0667675 0.547982 82.4299 -51.992 -111.345 21.6798 -25.8752 -17.0119 -16.5791 -18.0339 -18.6746 -10.6374 0.145815 -6.87385 -92.1281 -47.2016 75.0701 -21.6742 11.7425 -13.7194 60.9253 53.688 -63.2556 4.39557 -0.646559 -13.6731 8.36689 -1.57341 -8.08435 6.69081 0.550747 4.53569 
29.1999 102.851 -330.849 178.204 -82.7161 177.442 -174.318 -4.88489 89.5759 -16.6242 26.7704 9.05486 64.3507 3.19285 3.26239 28.6669 -0.294451 0.778101 172.714 -5.69531 87.5464 -15.0158 2.76725 1.50762 64.5379 -2.2929 -0.259104 23.914 -1.61076 2.56427 0.0534703 8.10987 -89.7506 10.6534 0.221349 0.475712 -1.01764 0.242069 0.465501 -23.5521 0.0681379 0.520239 -3.53948 0.0681414 0.520237 82.9153 -51.5893 -110.774 22.0479 -25.826 -17.0991 -16.4901 -18.0543 -18.4947 -10.3478 0.141878 -6.88619 -92.2555 -47.6852 75.0037 -21.4781 13.1621 -13.7526 50.5686 51.477 -52.9628 3.03472 -0.452256 -11.9158 8.58306 -1.54176 -7.26724 6.17479 0.350661 3.88573 
29.2047 102.863 -330.788 179.91 -82.753 179.196 -174.357 -4.58724 89.6154 -17.1618 25.8361 8.99286 64.9326 3.38101 2.81002 27.9305 -0.360895 0.102157 172.651 -5.65346 87.5344 -15.0378 2.37503 1.54873 64.4044 -2.27456 -0.487199 24.1603 -1.57173 2.58191 0.0647128 8.11165 -89.7568 10.6499 0.240859 0.461517 -1.02108 0.260942 0.450468 -23.5556 0.0910228 0.512572 -3.54297 0.091016 0.512559 83.2118 -51.428 -110.393 22.3691 -25.6667 -17.23 -16.621 -18.2347 -18.6327 -10.1014 0.137134 -6.88168 -92.1439 -47.8136 75.2071 -21.508 14.5614 -13.4025 42.4495 47.9458 -44.8374 0.997613 -0.231007 -9.0809 8.95791 -1.63681 -7.40467 5.72104 0.310028 4.07517 
29.3261 102.876 -330.635 -178.912 -82.6435 -179.854 -174.659 -4.48455 89.1758 -17.7766 25.0856 9.22449 64.9078 3.25321 2.43822 27.9422 -0.0553411 -0.804026 172.486 -5.60731 87.199 -15.3976 2.25991 1.44743 64.4527 -2.29386 -0.316017 24.2863 -1.61792 2.79202 0.0505256 8.13619 -89.734 10.6007 0.223001 0.508556 -1.07029 0.245158 0.498237 -23.6047 0.0598381 0.552053 -3.59202 0.0598522 0.552068 83.6493 -51.2359 -109.813 22.5538 -25.496 -17.6081 -16.7393 -18.8539 -18.829 -10.4699 0.124999 -6.66496 -92.0896 -47.5538 75.2216 -22.1537 15.6514 -13.1022 34.8061 43.4656 -36.974 -0.854714 -0.117381 -6.55114 9.15476 -1.69121 -7.4816 5.64571 0.282108 4.05124 
29.4809 102.835 -330.385 -178.24 -82.5228 -179.343 -174.576 -5.32501 88.9677 -16.8189 25.621 9.02464 64.7867 3.33812 2.95871 28.3173 -0.306012 0.401056 172.101 -5.61131 86.7283 -15.8634 1.51159 1.56147 64.7312 -2.29169 -0.55983 24.6852 -1.62614 3.03908 0.0365781 8.14959 -89.7072 10.5739 0.207489 0.563241 -1.09718 0.232079 0.553554 -23.6314 0.0286177 0.599557 -3.61872 0.0286188 0.59955 83.3172 -51.4955 -110.215 22.3862 -25.2092 -17.3593 -16.8814 -18.8396 -19.0889 -10.7104 0.10653 -6.41839 -92.1503 -47.6671 75.159 -21.9877 17.5622 -12.6702 27.8842 37.1578 -29.9098 -2.51688 -0.0867628 -4.61357 9.0128 -1.5666 -7.39635 5.91158 0.37413 3.90402 
29.5715 102.898 -330.152 -178.619 -82.6522 -179.515 -174.817 -4.29222 89.0511 -18.7034 24.3856 9.4212 65.2226 3.25524 1.95906 27.6705 0.192624 -1.87723 172.17 -6.30539 86.8872 -14.5607 1.98597 1.59603 64.4948 -2.4325 -0.207881 24.2558 -1.56908 2.6265 0.0259584 8.1396 -89.7119 10.5939 0.184196 0.555982 -1.07713 0.208495 0.547339 -23.6113 0.00859284 0.585631 -3.59869 0.00859067 0.58564 83.2331 -51.7306 -110.26 22.6438 -24.8802 -17.048 -17.1736 -18.895 -19.5379 -9.92541 0.0480501 -5.82374 -92.0126 -47.0295 75.2013 -22.2383 20.1375 -12.9972 21.8716 31.1695 -23.2861 -3.43741 -0.100873 -2.66709 9.19867 -1.74718 -8.31733 5.54708 0.459462 4.73396 
29.7496 102.842 -329.825 -178.296 -82.4814 -179.254 -174.38 -5.9921 89.073 -16.3496 25.8454 8.88996 65.0747 3.52821 3.1322 28.1209 -0.558482 0.929448 171.886 -6.29636 86.5546 -15.2456 1.38046 1.69289 64.6747 -2.29236 -0.522238 24.5251 -1.54727 2.70958 0.00934744 8.16469 -89.7131 10.5439 0.150471 0.556737 -1.12721 0.174826 0.549566 -23.6614 -0.0238092 0.576224 -3.64876 -0.0238101 0.576215 82.9864 -51.9038 -110.562 22.4918 -24.7984 -16.9468 -17.1555 -18.4511 -19.3689 -9.36747 0.0607534 -6.05093 -92.0987 -47.0437 75.0734 -22.6018 21.7695 -12.4132 18.6823 25.4594 -19.808 -4.67468 -0.150601 -0.944722 9.14932 -1.77384 -8.51919 5.73566 0.504873 5.04105 
29.9383 102.833 -329.594 -179.679 -82.705 179.402 -174.548 -5.46122 88.9494 -17.2352 25.5317 9.02508 65.471 3.66489 2.97558 27.7004 -0.376744 -0.117546 171.787 -6.59013 86.4587 -14.5503 1.59496 1.76433 64.6871 -2.42634 -0.367925 24.4518 -1.49559 2.51268 -0.0107919 8.14233 -89.7479 10.5887 0.0944468 0.49248 -1.08229 0.116029 0.487843 -23.6167 -0.0579286 0.498102 -3.60405 -0.0579383 0.498085 83.6851 -51.5072 -109.67 22.587 -25.3441 -17.497 -16.5847 -17.7319 -18.5324 -9.16235 0.0684376 -6.1789 -92.359 -47.4525 74.7845 -22.3292 24.0947 -13.0125 15.0614 20.3059 -15.0796 -5.01162 -0.187155 0.143205 8.77486 -1.6715 -7.75793 6.46531 0.388682 4.33901 
